<svg width="1080" height="1080" viewBox="0 0 1080 1080" fill="none" xmlns="http://www.w3.org/2000/svg">
<rect width="1080" height="1080" rx="203" fill="#171B25"/>
<path fill-rule="evenodd" clip-rule="evenodd" d="M475.74 490.903C474.633 489.062 473.001 487.628 471.112 486.84L154.79 354.777C146.943 351.501 140.406 360.307 145.004 367.959L237.972 522.654C239.079 524.496 240.712 525.929 242.6 526.718L283.394 543.749C291.461 547.117 289.054 559.131 280.312 559.131H203.251C194.332 559.131 190.845 570.71 198.281 575.635L534.72 798.443C537.733 800.438 541.646 800.438 544.659 798.443L881.098 575.635C888.534 570.711 885.047 559.131 876.128 559.131H801.463C792.721 559.131 790.314 547.117 798.381 543.749L837.286 527.506C839.174 526.718 840.807 525.284 841.914 523.443L934.882 368.747C939.48 361.096 932.943 352.29 925.096 355.566L608.774 487.628C606.885 488.417 605.253 489.85 604.146 491.692L565.948 555.252C564.501 557.659 561.899 559.131 559.091 559.131H521.269C518.461 559.131 515.859 557.659 514.412 555.252L475.74 490.903Z" fill="url(#paint0_linear_7_2)"/>
<path d="M543.087 582.532C541.089 584.922 537.414 584.922 535.415 582.532L449.551 479.827C446.829 476.572 449.144 471.62 453.387 471.62L625.116 471.62C629.359 471.62 631.673 476.572 628.952 479.827L543.087 582.532Z" fill="#171B25"/>
<ellipse cx="442.69" cy="606.12" rx="36" ry="66.5" fill="#242B3B"/>
<ellipse cx="635.69" cy="606.12" rx="36" ry="66.5" fill="#242B3C"/>
<defs>
<linearGradient id="paint0_linear_7_2" x1="539.943" y1="328.265" x2="539.943" y2="722.532" gradientUnits="userSpaceOnUse">
<stop offset="0.276042" stop-color="#069CF2"/>
<stop offset="1" stop-color="#003BD3"/>
</linearGradient>
</defs>
</svg>
